<svg width="17" height="17" viewBox="0 0 17 17" fill="none" xmlns="http://www.w3.org/2000/svg">
<path d="M7.08325 13.4583C7.08325 14.2375 7.72075 14.875 8.49992 14.875C9.27908 14.875 9.91658 14.2375 9.91658 13.4583C9.91658 12.6792 9.27908 12.0417 8.49992 12.0417C7.72075 12.0417 7.08325 12.6792 7.08325 13.4583Z" stroke="#222222" stroke-width="1.5"/>
<path d="M7.08325 3.54168C7.08325 4.32084 7.72075 4.95834 8.49992 4.95834C9.27908 4.95834 9.91658 4.32084 9.91658 3.54168C9.91658 2.76251 9.27908 2.12501 8.49992 2.12501C7.72075 2.12501 7.08325 2.76251 7.08325 3.54168Z" stroke="#222222" stroke-width="1.5"/>
<path d="M7.08325 8.50001C7.08325 9.27917 7.72075 9.91667 8.49992 9.91667C9.27908 9.91667 9.91658 9.27917 9.91658 8.50001C9.91658 7.72084 9.27908 7.08334 8.49992 7.08334C7.72075 7.08334 7.08325 7.72084 7.08325 8.50001Z" stroke="#222222" stroke-width="1.5"/>
</svg>