<svg width="19" height="19" viewBox="0 0 19 19" fill="none" xmlns="http://www.w3.org/2000/svg">
<path opacity="0.4" d="M12.8171 1.58325H6.18296C3.30129 1.58325 1.58337 3.30117 1.58337 6.18284V12.8091C1.58337 15.6987 3.30129 17.4166 6.18296 17.4166H12.8092C15.6909 17.4166 17.4088 15.6987 17.4088 12.817V6.18284C17.4167 3.30117 15.6988 1.58325 12.8171 1.58325Z" fill="#222222"/>
<path d="M12.6667 8.90617H10.0938V6.33325C10.0938 6.00867 9.82462 5.7395 9.50004 5.7395C9.17546 5.7395 8.90629 6.00867 8.90629 6.33325V8.90617H6.33337C6.00879 8.90617 5.73962 9.17534 5.73962 9.49992C5.73962 9.8245 6.00879 10.0937 6.33337 10.0937H8.90629V12.6666C8.90629 12.9912 9.17546 13.2603 9.50004 13.2603C9.82462 13.2603 10.0938 12.9912 10.0938 12.6666V10.0937H12.6667C12.9913 10.0937 13.2605 9.8245 13.2605 9.49992C13.2605 9.17534 12.9913 8.90617 12.6667 8.90617Z" fill="#222222"/>
</svg>
