<svg xmlns="http://www.w3.org/2000/svg" width="16" height="16" viewBox="0 0 16 16" fill="none">
  <path opacity="0.4" d="M8.00016 14.6667C11.6821 14.6667 14.6668 11.6819 14.6668 8C14.6668 4.3181 11.6821 1.33333 8.00016 1.33333C4.31826 1.33333 1.3335 4.3181 1.3335 8C1.3335 11.6819 4.31826 14.6667 8.00016 14.6667Z" fill="#222222" fill-opacity="0.27"/>
  <path d="M8.7069 8L10.2402 6.46667C10.4336 6.27333 10.4336 5.95334 10.2402 5.76C10.0469 5.56667 9.7269 5.56667 9.53357 5.76L8.00023 7.29333L6.4669 5.76C6.27357 5.56667 5.95357 5.56667 5.76023 5.76C5.5669 5.95334 5.5669 6.27333 5.76023 6.46667L7.29357 8L5.76023 9.53334C5.5669 9.72667 5.5669 10.0467 5.76023 10.24C5.86023 10.34 5.9869 10.3867 6.11357 10.3867C6.24023 10.3867 6.3669 10.34 6.4669 10.24L8.00023 8.70667L9.53357 10.24C9.63357 10.34 9.76023 10.3867 9.8869 10.3867C10.0136 10.3867 10.1402 10.34 10.2402 10.24C10.4336 10.0467 10.4336 9.72667 10.2402 9.53334L8.7069 8Z" fill="#222222" fill-opacity="0.41"/>
</svg>