<svg width="43" height="10" viewBox="0 0 43 10" fill="none" xmlns="http://www.w3.org/2000/svg">
<path d="M0.944 4.812C0.944 3.996 1.132 3.264 1.508 2.616C1.892 1.968 2.408 1.464 3.056 1.104C3.712 0.735999 4.428 0.551999 5.204 0.551999C6.092 0.551999 6.88 0.771999 7.568 1.212C8.264 1.644 8.768 2.26 9.08 3.06H7.436C7.22 2.62 6.92 2.292 6.536 2.076C6.152 1.86 5.708 1.752 5.204 1.752C4.652 1.752 4.16 1.876 3.728 2.124C3.296 2.372 2.956 2.728 2.708 3.192C2.468 3.656 2.348 4.196 2.348 4.812C2.348 5.428 2.468 5.968 2.708 6.432C2.956 6.896 3.296 7.256 3.728 7.512C4.16 7.76 4.652 7.884 5.204 7.884C5.708 7.884 6.152 7.776 6.536 7.56C6.92 7.344 7.22 7.016 7.436 6.576H9.08C8.768 7.376 8.264 7.992 7.568 8.424C6.88 8.856 6.092 9.072 5.204 9.072C4.42 9.072 3.704 8.892 3.056 8.532C2.408 8.164 1.892 7.656 1.508 7.008C1.132 6.36 0.944 5.628 0.944 4.812ZM12.2773 3.504V7.164C12.2773 7.412 12.3333 7.592 12.4453 7.704C12.5653 7.808 12.7653 7.86 13.0453 7.86H13.8853V9H12.8053C12.1893 9 11.7173 8.856 11.3893 8.568C11.0613 8.28 10.8973 7.812 10.8973 7.164V3.504H10.1173V2.388H10.8973V0.744H12.2773V2.388H13.8853V3.504H12.2773ZM16.5141 3.348C16.7141 3.012 16.9781 2.752 17.3061 2.568C17.6421 2.376 18.0381 2.28 18.4941 2.28V3.696H18.1461C17.6101 3.696 17.2021 3.832 16.9221 4.104C16.6501 4.376 16.5141 4.848 16.5141 5.52V9H15.1461V2.388H16.5141V3.348ZM21.1196 0.12V9H19.7516V0.12H21.1196ZM32.4768 5.244H30.0528V7.728H28.7808V5.244H26.3568V4.092H28.7808V1.608H30.0528V4.092H32.4768V5.244ZM42.6244 0.659999V1.776H39.0844V4.236H41.8444V5.352H39.0844V9H37.7164V0.659999H42.6244Z" fill="#222222"/>
</svg>
