<svg width="19" height="19" viewBox="0 0 19 19" fill="none" xmlns="http://www.w3.org/2000/svg">
<path opacity="0.4" d="M6.18296 1.58325H12.8092C15.6988 1.58325 17.4167 3.30117 17.4167 6.18284V12.8091C17.4167 15.6908 15.6988 17.4087 12.8171 17.4087H6.18296C3.30129 17.4166 1.58337 15.6987 1.58337 12.817V6.18284C1.58337 3.30117 3.30129 1.58325 6.18296 1.58325Z" fill="#222222"/>
<path d="M14.0045 10.6716C13.9412 10.5291 13.8304 10.4104 13.68 10.3471C13.6087 10.3154 13.5295 10.2996 13.4504 10.2996H5.54163C5.21704 10.2996 4.94788 10.5687 4.94788 10.8933C4.94788 11.2179 5.21704 11.4871 5.54163 11.4871H12.0254L10.7033 12.8091C10.4737 13.0387 10.4737 13.4187 10.7033 13.6483C10.822 13.7671 10.9725 13.8225 11.1229 13.8225C11.2733 13.8225 11.4237 13.7671 11.5425 13.6483L13.8779 11.3129C13.9333 11.2575 13.9729 11.1941 14.0045 11.1229C14.0679 10.9725 14.0679 10.8141 14.0045 10.6716Z" fill="#222222"/>
<path d="M4.99538 8.3283C5.05871 8.4708 5.16954 8.58955 5.31996 8.65288C5.39121 8.68455 5.46246 8.70038 5.54163 8.70038H13.4583C13.7829 8.70038 14.052 8.43121 14.052 8.10663C14.052 7.78205 13.7829 7.51288 13.4583 7.51288H6.97454L8.29663 6.1908C8.52621 5.96121 8.52621 5.58121 8.29663 5.35163C8.06704 5.12205 7.68704 5.12205 7.45746 5.35163L5.12204 7.68705C5.06663 7.74246 5.02704 7.8058 4.99538 7.87705C4.93204 8.02746 4.93204 8.1858 4.99538 8.3283Z" fill="#222222"/>
</svg>
