<svg xmlns="http://www.w3.org/2000/svg" width="21" height="20" viewBox="0 0 21 20" fill="none">
  <path opacity="0.4" d="M14.5449 17.0833H6.21159C3.71159 17.0833 2.04492 15.8333 2.04492 12.9167V7.08332C2.04492 4.16666 3.71159 2.91666 6.21159 2.91666H14.5449C17.0449 2.91666 18.7116 4.16666 18.7116 7.08332V12.9167C18.7116 15.8333 17.0449 17.0833 14.5449 17.0833Z" fill="#222222"/>
  <path d="M10.3784 10.725C9.6784 10.725 8.97007 10.5083 8.4284 10.0667L5.82006 7.98334C5.55339 7.76667 5.5034 7.375 5.72007 7.10834C5.93673 6.84167 6.3284 6.79168 6.59507 7.00834L9.20339 9.09168C9.83673 9.60001 10.9117 9.60001 11.5451 9.09168L14.1534 7.00834C14.4201 6.79168 14.8201 6.83334 15.0284 7.10834C15.2451 7.375 15.2034 7.77501 14.9284 7.98334L12.3201 10.0667C11.7867 10.5083 11.0784 10.725 10.3784 10.725Z" fill="#222222"/>
</svg>