<svg width="52" height="52" viewBox="0 0 52 52" fill="none" xmlns="http://www.w3.org/2000/svg">
  <rect width="52" height="52" rx="16" fill="#1E1E1E"/>
  <!-- Embedding the first SVG and centering it -->
  <g transform="translate(18, 18)">
    <svg width="16" height="17" viewBox="0 0 16 17" fill="none" xmlns="http://www.w3.org/2000/svg">
      <path d="M7.04 0.079999C8.816 0.079999 10.368 0.439999 11.696 1.16C13.04 1.864 14.072 2.856 14.792 4.136C15.512 5.416 15.872 6.88 15.872 8.528C15.872 10.16 15.504 11.616 14.768 12.896C14.048 14.176 13.016 15.184 11.672 15.92C10.344 16.64 8.8 17 7.04 17H0.344V0.079999H7.04ZM6.68 12.848C8.056 12.848 9.136 12.472 9.92 11.72C10.704 10.968 11.096 9.904 11.096 8.528C11.096 7.136 10.704 6.064 9.92 5.312C9.136 4.544 8.056 4.16 6.68 4.16H5.048V12.848H6.68Z" fill="white"/>
    </svg>
  </g>
</svg>
