<svg width="54" height="28" viewBox="0 0 54 28" fill="none" xmlns="http://www.w3.org/2000/svg">
  <rect width="54" height="28" rx="14" fill="#F2EFFF"/>
  <!-- Nested SVG -->
  <svg x="30" y="2" width="24" height="24" viewBox="0 0 24 24" xmlns="http://www.w3.org/2000/svg">
    <rect width="24" height="24" rx="12" fill="white"/>
    <svg xmlns="http://www.w3.org/2000/svg" width="16" height="16" viewBox="0 0 10 16" fill="none">
  <path d="M9.33337 10.6667C9.33337 11.8467 8.82004 12.9133 8.00004 13.64C7.29337 14.28 6.36004 14.6667 5.33337 14.6667C3.12671 14.6667 1.33337 12.8733 1.33337 10.6667C1.33337 9.31856 2.00764 8.12395 3.03306 7.40097C3.20045 7.28296 3.42706 7.36357 3.51765 7.54725C4.1474 8.82426 5.30438 9.78037 6.68004 10.1533C7.10004 10.2733 7.54004 10.3333 8.00004 10.3333C8.32326 10.3333 8.63293 10.3028 8.93387 10.2467C9.12853 10.2103 9.32226 10.3351 9.33056 10.5329C9.33244 10.5777 9.33337 10.6224 9.33337 10.6667Z" fill="#FFE769"/>
  <path d="M12 5.33331C12 5.85331 11.9 6.35331 11.72 6.80665C11.26 7.96665 10.2733 8.85998 9.05333 9.19331C8.72 9.28665 8.36667 9.33331 8 9.33331C7.63333 9.33331 7.28 9.28665 6.94667 9.19331C5.72667 8.85998 4.74 7.96665 4.28 6.80665C4.1 6.35331 4 5.85331 4 5.33331C4 3.12665 5.79333 1.33331 8 1.33331C10.2067 1.33331 12 3.12665 12 5.33331Z" fill="#FF7878"/>
  <path d="M14.6667 10.6667C14.6667 12.8733 12.8734 14.6667 10.6667 14.6667C10.1724 14.6667 9.69681 14.5769 9.25951 14.4114C9.04427 14.33 9.00414 14.0547 9.15369 13.8798C9.91264 12.9921 10.3334 11.8554 10.3334 10.6667C10.3334 10.44 10.3134 10.2133 10.28 10C10.2602 9.87702 10.323 9.75613 10.4319 9.6958C11.3133 9.20789 12.0332 8.46071 12.4826 7.54783C12.5731 7.36393 12.7999 7.28312 12.9674 7.40125C13.9926 8.12426 14.6667 9.31873 14.6667 10.6667Z" fill="#7E73FF"/>
</svg>
  </svg>
</svg>
